:SAMPLES-PER-SECOND 30
:FULLY-SPECIFIED
:DEGREES
379
root  -22.0501 39.5276 -18.9059 159.205 -70.8968 -163.89
RightUpLeg  3.94992 -19.8763 0.880997
RightLeg  21.3529 -5.52519 -0.480988
RightFoot  -16.5547 -0.142314 -0.683665
RightToes  0.00048216 0.542163 -0.142577
Spine  13.3875 -0.0516911 13.5805
Spine1  13.334 2.88205 -4.86571
HEad  4.82226 5.17459 -6.09464
LeftShoulder1  9.27523 -14.0176 -46.1731
LeftArm  -13.5715 16.1606 -23.2124
LeftForeArm  46.6956 -77.4224 -56.7231
LeftHand  -0.25398 0.0180481 5.50724
RightShoulder  5.25248 9.51929 34.3801
RightArm  -7.8787 -19.4795 22.2572
RightForeArm  7.58223 77.1322 74.2675
RightHand  1.05289 -13.7402 -15.3348
LeftUpLeg  -23.6113 20.4732 -1.051
LeftLeg  10.1196 7.04928 -0.877034
LeftFoot  -0.896605 0.0784249 -0.744046
LeftToes  1.06246e-005 4.65856e-005 -8.18501e-006
380
root  -23.4403 39.2438 -19.4848 156.295 -70.3546 -160.698
RightUpLeg  6.42581 -20.0472 1.48792
RightLeg  21.6549 -5.04471 -0.499607
RightFoot  -18.5524 -0.133176 -0.0812317
RightToes  0.00048216 0.542163 -0.142577
Spine  13.427 -0.0929574 14.6373
Spine1  13.7025 3.18313 -5.63683
HEad  4.59576 5.46857 -5.69956
LeftShoulder1  9.23854 -14.0112 -46.0021
LeftArm  -14.1445 15.7765 -23.0942
LeftForeArm  45.3613 -77.2349 -55.4597
LeftHand  -0.25398 0.0180481 5.50724
RightShoulder  5.33748 9.68861 34.5051
RightArm  -7.22006 -18.0879 22.3547
RightForeArm  4.32655 76.8947 70.7905
RightHand  0.980812 -13.1719 -15.366
LeftUpLeg  -18.934 6.65332 7.05591
LeftLeg  -4.09982 28.6978 -8.56542
LeftFoot  -2.25022 0.108901 -1.25501
LeftToes  1.06246e-005 4.65856e-005 -8.18501e-006
381
root  -24.8831 38.8252 -20.086 153.069 -70.0942 -157.396
RightUpLeg  8.84756 -20.8538 2.10934
RightLeg  22.8492 -4.454 -1.24464
RightFoot  -21.1533 -0.12429 0.194626
RightToes  0.00048216 0.542163 -0.142577
Spine  13.5698 -0.0953626 14.5981
Spine1  14.1229 3.05401 -5.11482
HEad  4.58177 5.94554 -5.41973
LeftShoulder1  9.24775 -14.0206 -46.0238
LeftArm  -14.4128 15.1367 -22.8467
LeftForeArm  42.798 -76.8341 -52.9471
LeftHand  -0.25398 0.0180481 5.50724
RightShoulder  5.41907 9.85588 34.6076
RightArm  -6.64803 -16.5168 22.3278
RightForeArm  -0.0200285 76.5416 66.8054
RightHand  0.946882 -12.6839 -15.8129
LeftUpLeg  -19.0662 7.38737 7.18784
LeftLeg  -7.01162 31.3201 -9.55272
LeftFoot  -3.74197 0.162487 -1.9283
LeftToes  1.06246e-005 4.65856e-005 -8.18501e-006
382
root  -26.2073 38.47 -20.7205 152.662 -70.9399 -156.788
RightUpLeg  10.4482 -20.7035 2.08347
RightLeg  24.3968 -4.69733 -2.54308
RightFoot  -23.1996 0.144576 2.82324
RightToes  0.00048216 0.542163 -0.142577
Spine  14.4947 -0.058212 11.7071
Spine1  14.4836 2.5451 -3.60075
HEad  4.37435 6.52847 -4.95373
LeftShoulder1  9.27282 -14.0564 -46.0557
LeftArm  -14.5744 14.265 -22.6396
LeftForeArm  39.8941 -76.3037 -49.997
LeftHand  -0.25398 0.0180481 5.50724
RightShoulder  5.51787 10.0122 34.8653
RightArm  -6.33969 -14.8219 22.3376
RightForeArm  -5.14732 75.9886 61.9025
RightHand  0.905793 -12.2176 -16.1537
LeftUpLeg  -19.4038 7.46872 6.47237
LeftLeg  -6.45766 30.5792 -9.59833
LeftFoot  2.07135 -0.329353 2.13401
LeftToes  1.06246e-005 4.65856e-005 -8.18501e-006
383
root  -27.4496 38.1592 -21.2898 155.193 -72.2253 -158.913
RightUpLeg  9.25125 -18.9305 1.17547
RightLeg  30.1335 -5.15266 -3.45969
RightFoot  -23.0918 0.69177 8.45579
RightToes  0.00048216 0.542163 -0.142577
Spine  16.3526 0.141114 7.7978
Spine1  13.978 1.90909 -2.02836
HEad  3.57345 6.92281 -4.20413
LeftShoulder1  9.35087 -14.1912 -46.0905
LeftArm  -14.7746 12.7421 -22.3557
LeftForeArm  35.5725 -75.3525 -45.6094
LeftHand  -0.25398 0.0180481 5.50724
RightShoulder  5.64657 10.1859 35.2799
RightArm  -6.57174 -12.9699 22.7667
RightForeArm  -11.2825 74.9498 54.961
RightHand  0.807244 -11.6956 -15.6845
LeftUpLeg  -21.0203 7.74133 5.0533
LeftLeg  -3.13776 26.8703 -8.62368
LeftFoot  12.4671 -2.20133 10.017
LeftToes  1.06246e-005 4.65856e-005 -8.18501e-006
384
root  -28.5666 37.9419 -21.6956 159.392 -73.493 -162.556
RightUpLeg  3.99537 -18.2909 -0.783443
RightLeg  41.9159 -3.97176 -4.12369
RightFoot  -17.3869 0.547385 12.3936
RightToes  0.00048216 0.542163 -0.142577
Spine  19.4149 0.202213 5.03742
Spine1  12.6341 1.38174 -1.38104
HEad  1.94731 6.8445 -3.70821
LeftShoulder1  9.60577 -14.5898 -46.3091
LeftArm  -14.8507 9.89774 -21.6344
LeftForeArm  28.8363 -73.3828 -38.819
LeftHand  -0.25398 0.0180481 5.50724
RightShoulder  5.78101 10.42 35.547
RightArm  -7.53872 -10.7713 23.7449
RightForeArm  -17.5044 73.2327 46.8845
RightHand  0.672011 -11.1995 -14.3804
LeftUpLeg  -24.1844 10.2294 2.19593
LeftLeg  2.94326 21.0446 -6.22461
LeftFoot  18.6329 -4.4056 16.0628
LeftToes  1.06246e-005 4.65856e-005 -8.18501e-006
385
root  -29.3929 37.8428 -21.9422 164.414 -74.7987 -167.004
RightUpLeg  -4.69509 -17.9317 -2.74739
RightLeg  55.8514 -2.77595 -4.82123
RightFoot  -5.51359 -0.506041 10.2776
RightToes  0.00048216 0.542163 -0.142577
Spine  24.0459 -0.16357 3.50281
Spine1  11.4904 1.05959 -2.06261
HEad  -0.565148 6.32324 -4.1111
LeftShoulder1  10.022 -15.2872 -46.5294
LeftArm  -14.6849 5.52507 -20.7545
LeftForeArm  21.4163 -70.1578 -31.2675
LeftHand  -0.25398 0.0180481 5.50724
RightShoulder  5.86542 10.7101 35.2979
RightArm  -8.98095 -7.80096 24.8778
RightForeArm  -22.8161 70.979 39.6053
RightHand  0.549585 -10.7468 -12.9889
LeftUpLeg  -27.7144 16.9237 -3.55613
LeftLeg  9.20471 12.8675 -3.02001
LeftFoot  17.6767 -4.79587 17.9508
LeftToes  1.06246e-005 4.65856e-005 -8.18501e-006
386
root  -29.9612 37.8064 -22.117 168.97 -75.6199 -170.954
RightUpLeg  -14.1826 -17.0877 -3.85481
RightLeg  66.0717 -1.58875 -4.58504
RightFoot  4.35426 -0.691877 5.04561
RightToes  0.00048216 0.542163 -0.142577
Spine  29.3648 -0.617487 2.77919
Spine1  11.0418 1.00005 -3.31729
HEad  -3.8092 5.69132 -5.28224
LeftShoulder1  10.3557 -16.0666 -46.1521
LeftArm  -14.6349 0.123913 -20.6456
LeftForeArm  15.4819 -66.1464 -25.0779
LeftHand  -0.25398 0.0180481 5.50724
RightShoulder  5.85872 11.0268 34.3656
RightArm  -10.2701 -3.55244 25.7498
RightForeArm  -27.8033 68.1347 33.2748
RightHand  0.44459 -10.1666 -12.0169
LeftUpLeg  -30.2844 21.416 -7.87234
LeftLeg  13.3225 8.06278 -1.25184
LeftFoot  13.9795 -4.01469 17.3437
LeftToes  1.06246e-005 4.65856e-005 -8.18501e-006
387
root  -30.4929 37.9648 -22.2794 170.652 -75.5418 -171.642
RightUpLeg  -22.4643 -16.1398 -3.6414
RightLeg  69.9166 -0.924351 -3.68029
RightFoot  6.19059 -0.326385 2.32953
RightToes  0.00048216 0.542163 -0.142577
Spine  34.0377 -0.990935 3.1214
Spine1  10.981 1.14812 -4.16015
HEad  -7.44722 5.26812 -6.33866
LeftShoulder1  10.4147 -16.7165 -44.8722
LeftArm  -15.2496 -5.70296 -21.6442
LeftForeArm  11.2854 -61.7812 -20.4776
LeftHand  -0.25398 0.0180481 5.50724
RightShoulder  5.79173 11.3882 32.9455
RightArm  -11.0343 2.27225 26.3702
RightForeArm  -32.8988 63.9853 26.9855
RightHand  0.325467 -9.37575 -10.8938
LeftUpLeg  -30.8203 22.227 -8.41625
LeftLeg  13.9786 6.98685 -1.28654
LeftFoot  12.7251 -3.64372 16.6085
LeftToes  1.06246e-005 4.65856e-005 -8.18501e-006
388
root  -31.0456 38.2689 -22.4596 170.669 -74.9316 -170.221
RightUpLeg  -28.7924 -15.4593 -2.62479
RightLeg  67.0306 -0.928045 -3.13111
RightFoot  3.08937 -0.420846 3.57064
RightToes  0.00048216 0.542163 -0.142577
Spine  37.8705 -1.28121 3.8069
Spine1  11.2378 1.35284 -4.75901
HEad  -11.196 5.03509 -6.64456
LeftShoulder1  10.2622 -17.2416 -42.9966
LeftArm  -16.5916 -11.8867 -23.0272
LeftForeArm  8.10997 -56.8241 -16.7348
LeftHand  -0.25398 0.0180481 5.50724
RightShoulder  5.72103 11.7971 31.437
RightArm  -11.4403 9.56308 26.9377
RightForeArm  -36.9082 57.939 20.8984
RightHand  0.183833 -8.46475 -8.74672
LeftUpLeg  -30.644 20.9301 -6.97312
LeftLeg  13.0644 8.41396 -1.59202
LeftFoot  13.3098 -3.73689 16.6042
LeftToes  1.06246e-005 4.65856e-005 -8.18501e-006
389
root  -31.5577 38.5339 -22.6953 170.76 -74.5855 -168.752
RightUpLeg  -32.9385 -15.1378 -1.36406
RightLeg  58.3001 -2.03996 -3.92544
RightFoot  0.912178 -0.678978 6.31946
RightToes  0.00048216 0.542163 -0.142577
Spine  41.4267 -1.64962 4.05641
Spine1  11.801 1.50552 -5.55473
HEad  -14.8892 4.72977 -6.49566
LeftShoulder1  10.0893 -17.7379 -41.1559
LeftArm  -18.1994 -18.5328 -23.6951
LeftForeArm  5.28419 -50.9581 -13.4928
LeftHand  -0.25398 0.0180481 5.50724
RightShoulder  5.6419 12.186 29.9855
RightArm  -11.8102 17.5682 27.4814
RightForeArm  -38.9507 50.6658 16.0278
RightHand  0.0591786 -7.47107 -5.88728
LeftUpLeg  -30.9915 19.573 -5.74862
LeftLeg  12.825 10.1688 -1.47914
LeftFoot  13.0238 -3.67236 16.5152
LeftToes  1.06246e-005 4.65856e-005 -8.18501e-006
390
root  -32.0465 38.7586 -22.996 170.307 -74.8234 -166.663
RightUpLeg  -35.1955 -15.2575 0.276944
RightLeg  45.2492 -4.65975 -5.28268
RightFoot  1.55731 -0.685004 6.16157
RightToes  0.00048216 0.542163 -0.142577
Spine  45.0009 -2.17882 4.30436
Spine1  11.965 1.45052 -6.11279
HEad  -18.3182 4.19835 -6.58031
LeftShoulder1  10.0987 -18.3099 -40.0139
LeftArm  -19.7198 -25.2261 -22.8391
LeftForeArm  2.3461 -44.4797 -10.837
LeftHand  -0.25398 0.0180481 5.50724
RightShoulder  5.51875 12.5216 28.4287
RightArm  -12.2641 25.0791 27.8191
RightForeArm  -40.172 43.7358 12.7763
RightHand  -0.00821918 -6.53452 -3.62119
LeftUpLeg  -31.6087 19.1801 -5.07536
LeftLeg  12.7433 10.3604 -1.63037
LeftFoot  12.1995 -3.44185 16.0469
LeftToes  1.06246e-005 4.65856e-005 -8.18501e-006
391
root  -32.5493 38.8762 -23.4021 171.015 -76.0838 -165.402
RightUpLeg  -36.2873 -16.3113 1.82526
RightLeg  30.1047 -5.70815 -4.09626
RightFoot  2.03233 -0.618354 5.40545
RightToes  0.00048216 0.542163 -0.142577
Spine  48.2419 -2.71444 4.26892
Spine1  11.518 1.00658 -5.94871
HEad  -21.4412 3.36676 -6.9933
LeftShoulder1  10.3934 -19.1824 -39.5459
LeftArm  -21.4933 -31.3783 -20.8242
LeftForeArm  -0.418326 -38.0843 -8.7989
LeftHand  -0.25398 0.0180481 5.50724
RightShoulder  5.35311 12.8293 26.7112
RightArm  -12.904 31.4572 27.5199
RightForeArm  -41.8769 37.9744 10.7155
RightHand  -0.0318503 -5.76671 -2.48457
LeftUpLeg  -33.222 19.8133 -5.89315
LeftLeg  13.0534 8.17068 -2.07069
LeftFoot  11.8024 -3.32755 15.791
LeftToes  1.06246e-005 4.65856e-005 -8.18501e-006
